<svg width="66" height="68" viewBox="0 0 66 68" fill="none" xmlns="http://www.w3.org/2000/svg">
<path d="M34.375 22.6668H30.25V39.6668L43.3125 47.7418L45.375 44.2567L34.375 37.5418V22.6668ZM47.6768 5.12842L60.346 16.0226L56.826 20.3718L44.1485 9.48325L47.6768 5.12842ZM18.3232 5.12842L21.8488 9.48042L9.17675 20.3718L5.65675 16.0198L18.3232 5.12842ZM33 11.3334C26.4355 11.3338 20.1401 14.0209 15.4985 18.8036C10.857 23.5863 8.24964 30.0729 8.25 36.8363C8.25036 43.5996 10.8584 50.0859 15.5005 54.8681C20.1425 59.6502 26.4383 62.3366 33.0028 62.3363C36.2531 62.3361 39.4717 61.6763 42.4746 60.3945C45.4775 59.1128 48.206 57.2342 50.5042 54.8661C52.8025 52.4979 54.6255 49.6865 55.8692 46.5925C57.1129 43.4984 57.7529 40.1823 57.7528 36.8334C57.7526 33.4845 57.1122 30.1685 55.8681 27.0746C54.6241 23.9807 52.8008 21.1695 50.5023 18.8016C48.2038 16.4337 45.4751 14.5554 42.472 13.2741C39.469 11.9927 36.2504 11.3332 33 11.3334ZM33 56.6668C22.385 56.6668 13.75 47.7701 13.75 36.8334C13.75 25.8968 22.385 17.0001 33 17.0001C43.615 17.0001 52.25 25.8968 52.25 36.8334C52.25 47.7701 43.615 56.6668 33 56.6668Z" fill="#FFE603"/>
</svg>
